<?xml version="1.0" standalone="no"?>
<!DOCTYPE svg PUBLIC "-//W3C//DTD SVG 1.1//EN" "http://www.w3.org/Graphics/SVG/1.1/DTD/svg11.dtd" >
<svg xmlns="http://www.w3.org/2000/svg">
<metadata>Generated by IcoMoon</metadata>
<defs>
<font id="icomoon" horiz-adv-x="1024">
<font-face units-per-em="1024" ascent="960" descent="-64" />
<missing-glyph horiz-adv-x="1024" />
<glyph unicode="&#x20;" horiz-adv-x="512" d="" />
<glyph unicode="&#xe901;" glyph-name="archive" horiz-adv-x="1109" d="M1108.505 746.252c0-24.854-19.883-44.738-44.738-44.738h-1019.029c-24.854 4.971-44.738 19.883-44.738 44.738v169.010c0 24.854 19.883 44.738 44.738 44.738h1024c24.854 0 44.738-19.883 44.738-44.738v-169.010zM1063.767-19.262c0-24.854-19.883-44.738-44.738-44.738h-934.524c-24.854 0-44.738 19.883-44.738 44.738v636.272c4.971 24.854 19.883 44.738 44.738 44.738h939.495c24.854 0 44.738-19.883 44.738-44.738v-636.272zM641.243 532.505h-173.981c-19.883 0-39.767-19.883-39.767-39.767s19.883-44.738 44.738-44.738h169.010c24.854 0 44.738 19.883 44.738 44.738s-24.854 39.767-44.738 39.767z" />
<glyph unicode="&#xe902;" glyph-name="arrow-down" horiz-adv-x="1084" d="M24.189 540.724l52.409 52.409c16.126 16.126 40.315 28.22 64.504 28.22s48.378-12.094 60.472-28.22l205.606-205.606v491.843c0 48.378 40.315 80.63 88.693 80.63h88.693c48.378 0 88.693-32.252 88.693-80.63v-487.811l205.606 205.606c16.126 16.126 40.315 28.22 64.504 28.22s48.378-8.063 64.504-28.22l52.409-52.409c16.126-16.126 28.22-40.315 28.22-64.504s-8.063-48.378-28.22-64.504l-455.559-451.528c-16.126-16.126-40.315-24.189-64.504-24.189s-48.378 8.063-64.504 24.189l-451.528 451.528c-16.126 16.126-24.189 40.315-24.189 64.504 0 20.157 8.063 44.346 24.189 60.472z" />
<glyph unicode="&#xe903;" glyph-name="arrow-lr" horiz-adv-x="927" d="M574.735 692.87c-8.095-8.095-12.142-20.237-12.142-32.379s4.047-24.285 12.142-32.379l101.186-109.281h-424.98l101.186 109.281c8.095 8.095 16.19 20.237 16.19 32.379s-4.047 24.285-12.142 32.379l-28.332 28.332c-8.095 8.095-20.237 16.19-32.379 16.19s-24.285-8.095-32.379-16.19l-230.704-238.798c-8.095-8.095-12.142-20.237-12.142-32.379s4.047-24.285 12.142-32.379l230.704-238.798c8.095-8.095 20.237-12.142 32.379-12.142s24.285 4.047 32.379 12.142l28.332 28.332c8.095 8.095 12.142 20.237 12.142 32.379s-4.047 24.285-12.142 32.379l-101.186 109.281h429.028l-101.186-109.281c-8.095-8.095-12.142-20.237-12.142-32.379s4.047-24.285 12.142-32.379l28.332-28.332c8.095-8.095 20.237-12.142 32.379-12.142s24.285 4.047 32.379 12.142l230.704 238.798c8.095 8.095 12.142 20.237 12.142 32.379s-4.047 24.285-12.142 32.379l-230.704 238.798c-8.095 8.095-20.237 12.142-32.379 12.142s-24.285-4.047-32.379-12.142l-36.427-28.332z" />
<glyph unicode="&#xe904;" glyph-name="arrow-up" horiz-adv-x="1084" d="M1056.252 355.276l-52.409-52.409c-16.126-16.126-40.315-28.22-64.504-28.22s-48.378 8.063-64.504 28.22l-205.606 205.606v-487.811c0-48.378-40.315-80.63-88.693-80.63h-88.693c-48.378 0-88.693 32.252-88.693 80.63v487.811l-201.575-205.606c-16.126-16.126-40.315-28.22-64.504-28.22s-48.378 8.063-64.504 28.22l-44.346 52.409c-20.157 16.126-28.22 40.315-28.22 64.504s8.063 48.378 28.22 64.504l451.528 451.528c16.126 16.126 40.315 24.189 64.504 24.189 20.157 0 44.346-8.063 60.472-24.189l451.528-451.528c16.126-16.126 24.189-40.315 24.189-64.504 4.031-24.189-8.063-48.378-24.189-64.504z" />
<glyph unicode="&#xe905;" glyph-name="download" horiz-adv-x="1109" d="M1108.505 0.621c0-34.796-29.825-64.621-64.621-64.621h-979.262c-34.796 0-64.621 29.825-64.621 64.621v213.748c0 34.796 29.825 64.621 64.621 64.621h308.194l89.476-89.476c24.854-24.854 54.68-39.767 89.476-39.767s64.621 14.913 89.476 39.767l89.476 89.476h313.165c34.796 0 64.621-29.825 64.621-64.621v-213.748zM884.816 547.417l-298.252-298.252c-9.942-9.942-19.883-14.913-29.825-14.913s-19.883 4.971-29.825 14.913l-298.252 298.252c-14.913 9.942-19.883 29.825-9.942 44.738 4.971 14.913 19.883 24.854 39.767 24.854h169.010v298.252c0 24.854 19.883 44.738 39.767 44.738h169.010c24.854 0 44.738-19.883 44.738-44.738v-298.252h169.010c14.913 0 34.796-9.942 39.767-24.854 9.942-14.913 4.971-34.796-4.971-44.738zM810.252 109.981c-24.854 0-44.738-19.883-44.738-44.738s19.883-44.738 44.738-44.738 44.738 19.883 44.738 44.738-19.883 44.738-44.738 44.738zM979.262 109.981c-24.854 0-44.738-19.883-44.738-44.738s19.883-44.738 44.738-44.738 44.738 19.883 44.738 44.738-19.883 44.738-44.738 44.738z" />
<glyph unicode="&#xe906;" glyph-name="edit" d="M842.404 495.921l-559.921-559.921h-282.483v282.483l559.921 559.921 282.483-282.483zM307.704 82.286l-156.374 156.374-60.532-60.532v-70.621h85.754v-85.754h70.621l60.532 60.532zM585.143 662.384c-5.044 0-10.089 0-10.089-5.044l-368.236-368.236c-5.044 0-5.044-5.044-5.044-5.044 0-10.089 5.044-15.133 15.133-15.133 5.044 0 10.089 0 10.089 5.044l368.236 368.236c5.044 5.044 5.044 5.044 5.044 10.089s-10.089 10.089-15.133 10.089zM998.778 652.296l-110.975-110.975-282.483 282.483 110.975 110.975c15.133 15.133 40.355 25.222 60.532 25.222s45.399-10.089 60.532-25.222l156.374-156.374c15.133-15.133 25.222-40.355 25.222-60.532s-5.044-50.443-20.177-65.576z" />
<glyph unicode="&#xe907;" glyph-name="flag-down" horiz-adv-x="927" d="M267.13 118.134l16.19 12.142c4.047 4.047 12.142 8.095 20.237 8.095s12.142-4.047 20.237-8.095l56.664-60.711v145.708c0 16.19 12.142 24.285 28.332 24.285h28.332c12.142 0 28.332-8.095 28.332-24.285v-145.708l60.711 60.711c4.047 4.047 12.142 8.095 20.237 8.095s12.142-4.047 20.237-8.095l16.19-16.19c4.047-4.047 8.095-12.142 8.095-20.237s-4.047-12.142-8.095-20.237l-133.565-133.565c-4.047-4.047-12.142-8.095-20.237-8.095s-12.142 4.047-20.237 8.095l-133.565 133.565c-4.047 4.047-8.095 12.142-8.095 20.237-8.095 12.142-4.047 16.19 0 24.285zM129.518 802.15v-841.866c0-12.142-8.095-20.237-20.237-20.237h-44.522c-12.142 0-20.237 8.095-20.237 20.237v841.866c-28.332 16.19-44.522 40.474-44.522 72.854 0 48.569 36.427 84.996 84.996 84.996s84.996-36.427 84.996-84.996c0-32.379-16.19-56.664-40.474-72.854zM926.862 543.115c0-24.285-72.854-299.51-384.506-246.893-214.514 101.186-372.364-84.996-372.364-60.711v493.787c0 16.19 8.095 28.332 20.237 36.427 8.095 4.047 186.182 8.095 287.368-145.708 149.755-226.656 449.265-76.901 449.265-76.901z" />
<glyph unicode="&#xe908;" glyph-name="flag" horiz-adv-x="927" d="M129.518 802.15v-841.866c0-12.142-8.095-20.237-20.237-20.237h-44.522c-12.142 0-20.237 8.095-20.237 20.237v841.866c-28.332 16.19-44.522 40.474-44.522 72.854 0 48.569 36.427 84.996 84.996 84.996s84.996-36.427 84.996-84.996c0-32.379-16.19-56.664-40.474-72.854zM926.862 543.115c0-24.285-72.854-299.51-384.506-246.893-214.514 101.186-372.364-84.996-372.364-60.711v493.787c0 16.19 8.095 28.332 20.237 36.427 8.095 4.047 186.182 8.095 287.368-145.708 149.755-226.656 449.265-76.901 449.265-76.901z" />
<glyph unicode="&#xe909;" glyph-name="logo" horiz-adv-x="4096" d="M1706.667 183.467h-341.333v170.667h341.333c36.978 0 76.8-36.978 76.8-76.8 0-56.889-39.822-93.867-76.8-93.867zM1365.333 752.356h361.244c36.978 0 76.8-36.978 76.8-76.8s-36.978-76.8-76.8-76.8h-361.244v153.6zM1857.422 467.911c133.689 36.978 153.6 150.756 153.6 244.622 0 133.689-96.711 247.467-381.156 247.467h-529.067c0 0 0-987.022 0-1024 36.978 0 531.911 0 531.911 0 284.444 0 398.222 150.756 398.222 284.444-2.844 207.644-173.511 247.467-173.511 247.467zM3205.689 960h890.311v-227.556h-645.689v-170.667h588.8v-227.556h-588.8v-170.667h645.689v-227.556c0 0-873.244 0-890.311 0 0 36.978 0 1024 0 1024zM2824.533 655.644c0-36.978-36.978-76.8-76.8-76.8h-341.333v170.667h341.333c36.978 0 76.8-36.978 76.8-76.8v-17.067zM2693.689 960h-531.911v-1024c0 0 227.556 0 247.467 0 0 36.978 0 418.133 0 418.133h264.533c76.8 0 133.689-56.889 133.689-150.756v-267.378h247.467v321.422c0 150.756-150.756 190.578-150.756 190.578s150.756 36.978 150.756 227.556c-2.844 247.467-190.578 284.444-361.244 284.444zM947.2 200.533c0 0-341.333 0-455.111 0-190.578 19.911-247.467 150.756-247.467 264.533 0 133.689 93.867 247.467 247.467 264.533 76.8 0 455.111 0 455.111 0v0 230.4h-435.2c-56.889 0-133.689 0-207.644-36.978-76.8-39.822-153.6-96.711-210.489-153.6-56.889-93.867-93.867-187.733-93.867-301.511 0-36.978 0-76.8 0-93.867 36.978-170.667 150.756-304.356 284.444-361.244 56.889-19.911 133.689-56.889 284.444-56.889h381.156v244.622h-2.844z" />
<glyph unicode="&#xe90a;" glyph-name="new" horiz-adv-x="1032" d="M972.996 500.966c-3.923 7.847-3.923 11.77-3.923 19.617 11.77 31.387 19.617 62.774 31.387 94.161 7.847 19.617 3.923 27.464-15.693 39.234-27.464 19.617-58.851 35.31-86.314 51.004-3.923 3.923-7.847 7.847-7.847 11.77-3.923 35.31-11.77 66.697-15.693 102.008-3.923 19.617-11.77 27.464-31.387 27.464-31.387 3.923-66.697 3.923-98.084 3.923-7.847 0-15.693 3.923-19.617 11.77-19.617 27.464-39.234 51.004-58.851 78.467-3.923 7.847-11.77 11.77-19.617 15.693-3.923 0-7.847 0-15.693 0-23.54-11.77-47.080-23.54-70.621-31.387-11.77-7.847-27.464-15.693-39.234-15.693s-27.464 11.77-39.234 15.693c-23.54 11.77-47.080 23.54-74.544 31.387-3.923 0-7.847 0-11.77 0-11.77 0-19.617-3.923-23.54-11.77-19.617-27.464-39.234-51.004-58.851-78.467-3.923-7.847-11.77-7.847-19.617-7.847-35.31 0-70.621-3.923-102.008-3.923-15.693-3.923-27.464-11.77-31.387-31.387-3.923-31.387-11.77-62.774-15.693-98.084 0-7.847-3.923-15.693-11.77-19.617-31.387-15.693-58.851-31.387-86.314-51.004-15.693-11.77-19.617-19.617-15.693-35.31 7.847-35.31 19.617-66.697 31.387-98.084 3.923-7.847 0-11.77-3.923-15.693-19.617-31.387-43.157-62.774-58.851-98.084 0 0 0 0-3.923 0 0-3.923 0-11.77 0-15.693 27.464-31.387 58.851-58.851 86.314-90.238 3.923-3.923 3.923-7.847 3.923-11.77-3.923-35.31-3.923-66.697-7.847-102.008 0-19.617 7.847-31.387 27.464-39.234 31.387-11.77 62.774-19.617 94.161-27.464 7.847 0 11.77-3.923 11.77-11.77 11.77-31.387 23.54-58.851 39.234-90.238 7.847-19.617 19.617-27.464 43.157-23.54 31.387 7.847 62.774 11.77 94.161 19.617 7.847 0 11.77 0 19.617-3.923 23.54-15.693 43.157-35.31 66.697-51.004 7.847-7.847 19.617-11.77 27.464-19.617 3.923 0 11.77 0 15.693 0 31.387 19.617 58.851 47.080 90.238 70.621 7.847 7.847 15.693 7.847 27.464 7.847 31.387-7.847 62.774-11.77 90.238-19.617 19.617-3.923 31.387 3.923 39.234 19.617 11.77 31.387 27.464 62.774 39.234 94.161 3.923 7.847 7.847 11.77 15.693 11.77 31.387 7.847 62.774 19.617 94.161 27.464 23.54 7.847 31.387 19.617 27.464 43.157-3.923 31.387-3.923 62.774-7.847 94.161 0 7.847 0 11.77 7.847 19.617 19.617 19.617 39.234 39.234 62.774 58.851 7.847 7.847 15.693 15.693 23.54 27.464 0 3.923 0 7.847 0 11.77-15.693 27.464-35.31 62.774-54.927 94.161zM372.72 300.874l-160.858 168.705v-153.011h-35.31v235.402l160.858-168.705v153.011h31.387v-235.402zM545.349 504.889h-86.314v-54.927h86.314v-31.387h-86.314v-74.544h86.314v-31.387h-121.625v219.709h121.625v-27.464zM772.904 300.874l-54.927 156.935-58.851-156.935-94.161 235.402h35.31l58.851-145.165 58.851 156.935 58.851-156.935 58.851 145.165h35.31l-98.084-235.402z" />
<glyph unicode="&#xe90b;" glyph-name="publish" d="M1024 448c0-284.029-227.971-512-512-512s-512 227.971-512 512 227.971 512 512 512 512-227.971 512-512zM680.175 601.226c3.737 0 7.474 11.212 7.474 14.949 3.737 3.737 11.212 7.474 14.949 7.474 11.212 3.737 22.423 7.474 33.635 7.474 11.212 3.737 26.161 3.737 33.635-7.474-3.737 3.737 14.949 14.949 14.949 14.949 7.474 3.737 14.949 3.737 18.686 7.474 0 3.737 0 14.949 0 14.949-11.212 0-14.949 7.474-14.949 18.686 0 0 0-3.737-3.737-3.737 0 11.212-11.212 3.737-14.949 3.737-14.949 3.737-14.949 14.949-18.686 26.161-3.737 7.474-11.212 7.474-11.212 14.949s-3.737 14.949-7.474 14.949c-3.737 0-11.212-14.949-11.212-14.949-7.474 3.737-7.474 0-14.949-3.737-3.737-3.737-7.474 0-11.212-3.737 11.212 3.737-3.737 11.212-11.212 7.474 7.474 3.737 3.737 11.212 0 18.686 0 0 3.737 0 3.737 0 0 7.474-18.686 11.212-26.161 14.949s-37.372 11.212-44.847 7.474c-7.474-3.737 3.737-18.686 3.737-26.161s-7.474-11.212-7.474-14.949c0-11.212 22.423-7.474 14.949-26.161-3.737-7.474-14.949-11.212-22.423-18.686-3.737-7.474 0-18.686 7.474-22.423 3.737-3.737-7.474-11.212-11.212-11.212-11.212-3.737-18.686 11.212-22.423 22.423-3.737 7.474-3.737 14.949-11.212 18.686-3.737 0-14.949 3.737-18.686 0-3.737 11.212-18.686 14.949-26.161 18.686-14.949 3.737-26.161 3.737-37.372 3.737 3.737 0 0 22.423-11.212 18.686 3.737 7.474 3.737 14.949 3.737 22.423 0 3.737 3.737 11.212 7.474 14.949 0 3.737 14.949 18.686 11.212 18.686 11.212 0 22.423-3.737 33.635 7.474 7.474 7.474 7.474 14.949 14.949 22.423 7.474 11.212 18.686-3.737 29.898-3.737 14.949 0 11.212 14.949 3.737 22.423 7.474 0 0 14.949-3.737 18.686-7.474 3.737-29.898-3.737-14.949-7.474-3.737 0-18.686-33.635-29.898-14.949-3.737 3.737-3.737 18.686-11.212 18.686-3.737 0-7.474-7.474-11.212-11.212 3.737 7.474-18.686 14.949-22.423 14.949 11.212 7.474 3.737 14.949-3.737 18.686-3.737 3.737-22.423 7.474-26.161 0-11.212-14.949 14.949-18.686 18.686-22.423 3.737 0 11.212-7.474 3.737-7.474-3.737-3.737-14.949-3.737-18.686-7.474-3.737-7.474 3.737-11.212 0-18.686-11.212-3.737-11.212 7.474-14.949 14.949 7.474-7.474-22.423-3.737-22.423-3.737-11.212 0-26.161-7.474-33.635 3.737 0 3.737 0 18.686 3.737 14.949-7.474 3.737-11.212 7.474-14.949 11.212-22.423-7.474-44.847-14.949-63.533-26.161 3.737 0 3.737 0 7.474 0s11.212 3.737 14.949 7.474c7.474 3.737 22.423 11.212 29.898 3.737 0 0 3.737 3.737 3.737 3.737 3.737-3.737 7.474-11.212 14.949-14.949-3.737 3.737-14.949 0-18.686 0s-11.212-3.737-14.949-7.474c3.737-3.737 3.737-7.474 3.737-11.212-14.949 3.737-22.423 14.949-33.635 14.949-3.737 0-11.212 0-14.949 0-63.533-33.635-115.854-85.956-156.964-149.489 3.737-3.737 3.737-3.737 7.474-3.737 7.474-3.737 0-22.423 11.212-11.212 3.737-3.737 3.737-7.474 3.737-11.212 0 0 26.161-14.949 29.898-18.686 7.474-3.737 11.212-11.212 14.949-14.949 0-3.737-3.737-11.212-7.474-11.212 0 0-11.212 11.212-11.212 7.474-3.737-3.737 0-22.423 7.474-22.423-11.212 0-7.474-41.109-7.474-48.584 0 0 0 0 0 0-3.737-7.474 3.737-41.109 18.686-37.372-7.474-3.737 14.949-33.635 18.686-33.635 7.474-7.474 18.686-11.212 26.161-18.686s7.474-22.423 14.949-29.898c-3.737-7.474 14.949-18.686 14.949-29.898 0 0-3.737 0-3.737 0 3.737-7.474 14.949-7.474 22.423-18.686 3.737-3.737 0-18.686 7.474-14.949 0 14.949-7.474 29.898-14.949 41.109-3.737 7.474-7.474 11.212-11.212 18.686s-3.737 14.949-7.474 18.686c3.737 0 18.686-7.474 14.949-7.474-3.737-14.949 22.423-37.372 29.898-44.847 3.737-3.737 18.686-22.423 7.474-22.423 7.474 0 22.423-14.949 26.161-18.686 7.474-11.212 3.737-22.423 7.474-33.635 3.737-14.949 22.423-18.686 33.635-26.161 7.474-3.737 18.686-11.212 26.161-14.949 14.949-3.737 18.686 0 29.898 0 18.686 3.737 18.686-14.949 33.635-22.423 7.474-3.737 26.161-11.212 37.372-7.474-3.737 0 14.949-29.898 14.949-29.898 7.474-7.474 18.686-11.212 22.423-18.686 3.737 0 3.737 3.737 3.737 7.474-3.737-7.474 11.212-22.423 14.949-18.686 7.474 0 7.474 14.949 7.474 22.423-14.949-7.474-26.161 0-33.635 11.212 0 3.737-11.212 22.423-3.737 22.423 11.212 0 3.737 11.212 3.737 18.686s-11.212 14.949-14.949 22.423c-3.737-7.474-18.686-7.474-22.423 0 0-3.737-3.737-3.737-3.737-7.474-3.737 0-7.474 0-11.212 0 0 7.474 3.737 18.686 3.737 26.161 3.737 11.212 26.161 33.635-3.737 33.635-11.212 0-14.949-3.737-18.686-14.949-3.737-7.474-3.737-14.949-11.212-18.686s-26.161 0-33.635 3.737c-11.212 7.474-22.423 29.898-22.423 44.847 0 18.686 7.474 33.635 0 52.321 3.737 3.737 7.474 11.212 11.212 14.949s7.474-3.737 11.212 7.474c-3.737 0-3.737 3.737-3.737 3.737 11.212-3.737 29.898 7.474 37.372 0 3.737-3.737 11.212-3.737 14.949 0 0 3.737-3.737 11.212-3.737 14.949 3.737-11.212 7.474-14.949 18.686-7.474 3.737-3.737 14.949-3.737 22.423-7.474s7.474-11.212 18.686-3.737c3.737-7.474 7.474-7.474 7.474-14.949 3.737-7.474 7.474-26.161 11.212-29.898 14.949-7.474 11.212 14.949 7.474 22.423 0 0 0 22.423 0 22.423-22.423 3.737-14.949 22.423 0 33.635 3.737 0 18.686 7.474 22.423 11.212 7.474 3.737 14.949 14.949 11.212 22.423 3.737 0 7.474 3.737 7.474 7.474-3.737 0-11.212 7.474-11.212 7.474 3.737 3.737 3.737 7.474 0 11.212 7.474 3.737 3.737 11.212 11.212 14.949 7.474-11.212 22.423 0 14.949 7.474 7.474 7.474 22.423 3.737 26.161 14.949 11.212-3.737 3.737 11.212 7.474 18.686s11.212 7.474 18.686 7.474c0 0 14.949 7.474 11.212 11.212 11.212 0 33.635 11.212 14.949 22.423 3.737 7.474-7.474 7.474-11.212 11.212 3.737 0 11.212 0 14.949 0 7.474 7.474 3.737 7.474-3.737 11.212s-22.423-3.737-29.898-7.474c11.212-11.212 7.474-18.686 0-18.686zM822.19 152.759c-3.737 3.737-11.212 3.737-14.949 3.737-3.737 3.737-7.474 3.737-14.949 3.737 0 14.949-14.949 18.686-22.423 26.161s-14.949 14.949-26.161 11.212c0 0-14.949-3.737-11.212-7.474-7.474 7.474-11.212 11.212-22.423 14.949s-18.686 14.949-29.898 3.737c-3.737-3.737-3.737-14.949-3.737-18.686-7.474 7.474 7.474 14.949 0 22.423s-22.423-7.474-29.898-11.212c-3.737-3.737-7.474-3.737-11.212-7.474s-3.737-11.212-7.474-14.949c-3.737 3.737-14.949 3.737-14.949 7.474 3.737-14.949 3.737-33.635 7.474-48.584 3.737-7.474 0-26.161-7.474-33.635s-18.686-14.949-18.686-26.161c0-7.474 0-14.949 7.474-18.686 0-11.212-11.212-18.686-11.212-29.898 0 0 0-7.474 0-11.212 85.956 26.161 168.175 71.007 231.708 134.54z" />
<glyph unicode="&#xe90c;" glyph-name="save" d="M1024 0.621c0-34.796-29.825-64.621-64.621-64.621h-894.757c-34.796 0-64.621 29.825-64.621 64.621v894.757c0 34.796 29.825 64.621 64.621 64.621h616.388c34.796 0 84.505-19.883 109.359-44.738l188.893-188.893c24.854-24.854 44.738-74.563 44.738-109.359v-616.388zM939.495 20.505v596.505c0 14.913-9.942 39.767-19.883 49.709l-188.893 188.893c-9.942 9.942-34.796 19.883-49.709 19.883v-278.369c0-34.796-29.825-64.621-64.621-64.621h-382.757c-34.796 0-64.621 29.825-64.621 64.621v278.369h-84.505v-850.019h84.505v278.369c0 29.825 29.825 59.65 64.621 59.65h551.767c34.796 0 64.621-29.825 64.621-64.621v-278.369h89.476zM765.515 20.505v253.515h-512v-253.515h512zM596.505 855.612c0 9.942-9.942 19.883-19.883 19.883h-129.243c-9.942 0-19.883-9.942-19.883-19.883v-213.748c0-9.942 9.942-19.883 19.883-19.883h129.243c9.942 0 19.883 9.942 19.883 19.883v213.748z" />
<glyph unicode="&#xe90d;" glyph-name="star-up" horiz-adv-x="1072" d="M1072.378 564.913c0 20.157-20.157 28.22-36.283 28.22l-322.52 48.378-145.134 294.299c-8.063 8.063-16.126 24.189-32.252 24.189s-24.189-16.126-32.252-28.22l-145.134-290.268-322.52-48.378c-16.126-4.031-36.283-8.063-36.283-28.22 0-12.094 8.063-24.189 16.126-32.252l233.827-229.795-56.441-322.52c0-4.031 0-8.063 0-12.094 0-16.126 8.063-32.252 28.22-32.252 8.063 0 16.126 4.031 24.189 8.063l290.268 153.197 290.268-153.197c8.063-4.031 16.126-8.063 24.189-8.063 20.157 0 28.22 16.126 28.22 32.252 0 4.031 0 8.063 0 12.094l-56.441 322.52 233.827 229.795c8.063 8.063 16.126 20.157 16.126 32.252zM701.48 419.78l-16.126-16.126c-4.031-4.031-12.094-8.063-20.157-8.063s-16.126 4.031-20.157 8.063l-64.504 64.504v-157.228c0-16.126-12.094-24.189-28.22-24.189h-28.22c-16.126 0-28.22 8.063-28.22 24.189v157.228l-64.504-64.504c-4.031-4.031-12.094-8.063-20.157-8.063s-16.126 4.031-20.157 8.063l-16.126 16.126c-8.063 4.031-12.094 12.094-12.094 20.157s4.031 16.126 8.063 20.157l145.134 145.134c4.031 4.031 12.094 8.063 20.157 8.063s16.126-4.031 20.157-8.063l145.134-145.134c4.031-4.031 8.063-12.094 8.063-20.157s-4.031-16.126-8.063-20.157z" />
<glyph unicode="&#xe90e;" glyph-name="star" horiz-adv-x="1074" d="M1052.845 534.535l-230.761-230.761 57.69-324.507c0-7.211 0-7.211 0-14.423 0-14.423-7.211-28.845-28.845-28.845-7.211 0-14.423 0-28.845 7.211l-288.451 151.437-288.451-151.437c-7.211-7.211-14.423-7.211-28.845-7.211-21.634 0-28.845 14.423-28.845 28.845 0 7.211 0 7.211 0 14.423l57.69 324.507-230.761 230.761c-7.211 7.211-14.423 14.423-14.423 28.845 0 21.634 21.634 28.845 36.056 28.845l324.507 50.479 144.225 295.662c7.211 7.211 14.423 21.634 28.845 21.634s28.845-14.423 28.845-28.845l144.225-295.662 324.507-50.479c14.423 0 36.056-7.211 36.056-28.845 7.211-7.211-7.211-14.423-14.423-21.634z" />
<glyph unicode="&#xe90f;" glyph-name="tbd" d="M689.231 554.338h-19.692v-212.677h19.692c19.692 0 35.446 3.938 51.2 7.877 11.815 3.938 23.631 11.815 35.446 19.692 23.631 19.692 31.508 47.262 31.508 78.769s-11.815 59.077-31.508 78.769c-19.692 19.692-47.262 27.569-86.646 27.569zM460.8 432.246h-23.631v-90.585h27.569c19.692 0 35.446 3.938 43.323 11.815 11.815 7.877 15.754 19.692 15.754 31.508s-3.938 23.631-15.754 31.508c-7.877 11.815-23.631 15.754-47.262 15.754zM488.369 479.508c7.877 7.877 11.815 19.692 11.815 31.508 0 15.754-3.938 23.631-11.815 31.508s-19.692 11.815-35.446 11.815h-15.754v-86.646h15.754c15.754 0 27.569 3.938 35.446 11.815zM512 960c-283.569 0-512-228.431-512-512s228.431-512 512-512 512 228.431 512 512-228.431 512-512 512zM350.523 554.338h-66.954v-256h-43.323v256h-70.892v43.323h181.169v-43.323zM543.508 325.908c-11.815-7.877-19.692-15.754-31.508-19.692s-31.508-3.938-51.2-3.938h-66.954v295.385h43.323c19.692 0 35.446 0 47.262-3.938s23.631-7.877 31.508-15.754c7.877-7.877 15.754-15.754 19.692-27.569s7.877-23.631 7.877-35.446c0-19.692-7.877-39.385-23.631-55.138 15.754-3.938 27.569-15.754 35.446-27.569s15.754-27.569 15.754-47.262c-3.938-23.631-11.815-43.323-27.569-59.077zM807.385 337.723c-15.754-15.754-31.508-23.631-51.2-27.569-15.754-3.938-39.385-7.877-70.892-7.877h-63.015v295.385h63.015c31.508 0 55.138-3.938 70.892-7.877 19.692-3.938 35.446-15.754 51.2-27.569 31.508-27.569 47.262-63.015 47.262-110.277 0-51.2-15.754-86.646-47.262-114.215z" />
<glyph unicode="&#xf00d;" glyph-name="close, remove, times" horiz-adv-x="805" d="M741.714 195.428c0-14.286-5.714-28.571-16-38.857l-77.714-77.714c-10.286-10.286-24.571-16-38.857-16s-28.571 5.714-38.857 16l-168 168-168-168c-10.286-10.286-24.571-16-38.857-16s-28.571 5.714-38.857 16l-77.714 77.714c-10.286 10.286-16 24.571-16 38.857s5.714 28.571 16 38.857l168 168-168 168c-10.286 10.286-16 24.571-16 38.857s5.714 28.571 16 38.857l77.714 77.714c10.286 10.286 24.571 16 38.857 16s28.571-5.714 38.857-16l168-168 168 168c10.286 10.286 24.571 16 38.857 16s28.571-5.714 38.857-16l77.714-77.714c10.286-10.286 16-24.571 16-38.857s-5.714-28.571-16-38.857l-168-168 168-168c10.286-10.286 16-24.571 16-38.857z" />
<glyph unicode="&#xf015;" glyph-name="home" horiz-adv-x="951" d="M804.571 384v-274.286c0-20-16.571-36.571-36.571-36.571h-219.429v219.429h-146.286v-219.429h-219.429c-20 0-36.571 16.571-36.571 36.571v274.286c0 1.143 0.571 2.286 0.571 3.429l328.571 270.857 328.571-270.857c0.571-1.143 0.571-2.286 0.571-3.429zM932 423.428l-35.429-42.286c-2.857-3.429-7.429-5.714-12-6.286h-1.714c-4.571 0-8.571 1.143-12 4l-395.429 329.714-395.429-329.714c-4-2.857-8.571-4.571-13.714-4-4.571 0.571-9.143 2.857-12 6.286l-35.429 42.286c-6.286 7.429-5.143 19.429 2.286 25.714l410.857 342.286c24 20 62.857 20 86.857 0l139.429-116.571v111.429c0 10.286 8 18.286 18.286 18.286h109.714c10.286 0 18.286-8 18.286-18.286v-233.143l125.143-104c7.429-6.286 8.571-18.286 2.286-25.714z" />
<glyph unicode="&#xf053;" glyph-name="chevron-left" horiz-adv-x="768" d="M669.143 778.857l-303.429-303.429 303.429-303.429c14.286-14.286 14.286-37.143 0-51.429l-94.857-94.857c-14.286-14.286-37.143-14.286-51.429 0l-424 424c-14.286 14.286-14.286 37.143 0 51.429l424 424c14.286 14.286 37.143 14.286 51.429 0l94.857-94.857c14.286-14.286 14.286-37.143 0-51.429z" />
<glyph unicode="&#xf054;" glyph-name="chevron-right" horiz-adv-x="695" d="M632.571 449.714l-424-424c-14.286-14.286-37.143-14.286-51.429 0l-94.857 94.857c-14.286 14.286-14.286 37.143 0 51.429l303.429 303.429-303.429 303.429c-14.286 14.286-14.286 37.143 0 51.429l94.857 94.857c14.286 14.286 37.143 14.286 51.429 0l424-424c14.286-14.286 14.286-37.143 0-51.429z" />
<glyph unicode="&#xf077;" glyph-name="chevron-up" d="M961.714 190.286l-94.857-94.286c-14.286-14.286-37.143-14.286-51.429 0l-303.429 303.429-303.429-303.429c-14.286-14.286-37.143-14.286-51.429 0l-94.857 94.286c-14.286 14.286-14.286 37.714 0 52l424 423.429c14.286 14.286 37.143 14.286 51.429 0l424-423.429c14.286-14.286 14.286-37.714 0-52z" />
<glyph unicode="&#xf078;" glyph-name="chevron-down" d="M961.714 489.143l-424-423.429c-14.286-14.286-37.143-14.286-51.429 0l-424 423.429c-14.286 14.286-14.286 37.714 0 52l94.857 94.286c14.286 14.286 37.143 14.286 51.429 0l303.429-303.429 303.429 303.429c14.286 14.286 37.143 14.286 51.429 0l94.857-94.286c14.286-14.286 14.286-37.714 0-52z" />
<glyph unicode="&#xf087;" glyph-name="thumbs-o-up" horiz-adv-x="878" d="M146.286 182.857c0 20-16.571 36.571-36.571 36.571s-36.571-16.571-36.571-36.571 16.571-36.571 36.571-36.571 36.571 16.571 36.571 36.571zM804.571 512c0 38.857-34.857 73.143-73.143 73.143h-201.143c0 66.857 54.857 115.429 54.857 182.857 0 66.857-13.143 109.714-91.429 109.714-36.571-37.143-17.714-124.571-73.143-182.857-16-16.571-29.714-34.286-44-52-25.714-33.143-93.714-130.857-138.857-130.857h-18.286v-365.714h18.286c32 0 84.571-20.571 115.429-31.429 62.857-21.714 128-41.714 195.429-41.714h69.143c64.571 0 109.714 25.714 109.714 95.429 0 10.857-1.143 21.714-2.857 32 24 13.143 37.143 45.714 37.143 72 0 13.714-3.429 27.429-10.286 39.429 19.429 18.286 30.286 41.143 30.286 68 0 18.286-8 45.143-20 58.857 26.857 0.571 42.857 52 42.857 73.143zM877.714 512.571c0-33.143-9.714-65.714-28-93.143 3.429-12.571 5.143-26.286 5.143-39.429 0-28.571-7.429-57.143-21.714-82.286 1.143-8 1.714-16.571 1.714-24.571 0-36.571-12-73.143-34.286-101.714 1.143-108-72.571-171.429-178.286-171.429h-73.714c-81.143 0-156.571 24-232 50.286-16.571 5.714-62.857 22.857-78.857 22.857h-164.571c-40.571 0-73.143 32.571-73.143 73.143v365.714c0 40.571 32.571 73.143 73.143 73.143h156.571c22.286 14.857 61.143 66.286 78.286 88.571 19.429 25.143 39.429 49.714 61.143 73.143 34.286 36.571 16 126.857 73.143 182.857 13.714 13.143 32 21.143 51.429 21.143 59.429 0 116.571-21.143 144.571-76.571 17.714-34.857 20-68 20-106.286 0-40-10.286-74.286-27.429-109.714h100.571c78.857 0 146.286-66.857 146.286-145.714z" />
<glyph unicode="&#xf08b;" glyph-name="sign-out" horiz-adv-x="896" d="M365.714 128c0-16 7.429-54.857-18.286-54.857h-182.857c-90.857 0-164.571 73.714-164.571 164.571v402.286c0 90.857 73.714 164.571 164.571 164.571h182.857c9.714 0 18.286-8.571 18.286-18.286 0-16 7.429-54.857-18.286-54.857h-182.857c-50.286 0-91.429-41.143-91.429-91.429v-402.286c0-50.286 41.143-91.429 91.429-91.429h164.571c14.286 0 36.571 2.857 36.571-18.286zM896 438.857c0-9.714-4-18.857-10.857-25.714l-310.857-310.857c-6.857-6.857-16-10.857-25.714-10.857-20 0-36.571 16.571-36.571 36.571v164.571h-256c-20 0-36.571 16.571-36.571 36.571v219.429c0 20 16.571 36.571 36.571 36.571h256v164.571c0 20 16.571 36.571 36.571 36.571 9.714 0 18.857-4 25.714-10.857l310.857-310.857c6.857-6.857 10.857-16 10.857-25.714z" />
</font>
</defs>
</svg>
